<?xml version="1.0" encoding="UTF-8"?>
<!DOCTYPE svg PUBLIC "-//W3C//DTD SVG 1.1//EN" "http://www.w3.org/Graphics/SVG/1.1/DTD/svg11.dtd">
<!-- Creator: CorelDRAW X7 -->
<svg xmlns="http://www.w3.org/2000/svg" xml:space="preserve" width="190mm" height="67mm" version="1.1" style="shape-rendering:geometricPrecision; text-rendering:geometricPrecision; image-rendering:optimizeQuality; fill-rule:evenodd; clip-rule:evenodd"
viewBox="0 0 19000 6700"
 xmlns:xlink="http://www.w3.org/1999/xlink">
 <defs>
  <style type="text/css">
   <![CDATA[
    .fil13 {fill:#0E50B1}
    .fil6 {fill:#154798}
    .fil9 {fill:#759D15}
    .fil21 {fill:#772419}
    .fil5 {fill:#8A968B}
    .fil17 {fill:#8E554B}
    .fil15 {fill:#8F512C}
    .fil2 {fill:#92700E}
    .fil19 {fill:#956B30}
    .fil20 {fill:#965607}
    .fil11 {fill:#A6A9A6}
    .fil10 {fill:#C73846}
    .fil7 {fill:#C9592A}
    .fil1 {fill:#CF6F33}
    .fil12 {fill:#D15668}
    .fil18 {fill:#DD032B}
    .fil4 {fill:#E69947}
    .fil3 {fill:#E92A37}
    .fil16 {fill:#EB742C}
    .fil14 {fill:#EFCBB1}
    .fil22 {fill:#F18A2C}
    .fil8 {fill:#F20F30}
    .fil23 {fill:#FAD24F}
    .fil24 {fill:#FCE9D7}
    .fil0 {fill:#FCFAFB}
   ]]>
  </style>
 </defs>
 <g id="Layer_x0020_1">
  <metadata id="CorelCorpID_0Corel-Layer"/>
  <g id="_2797162863136">
   <polygon class="fil0" points="-62,6767 18993,6767 18993,3 -62,3 "/>
   <path class="fil0" d="M4880 3500c5,179 60,113 60,314 -16,-12 -90,-32 -103,-37 51,151 218,505 226,659 -746,113 -457,-28 -659,-359l-730 20 -135 343 -490 -92 104 -308c-5,-1 -11,-11 -13,-7 -34,73 30,-12 -103,-29l-420 -1c-21,75 325,0 421,0 -36,137 -125,273 -120,403 132,95 317,93 509,132 240,48 217,-105 322,-252 186,61 285,344 597,566l58 -10 -28 -148c38,0 92,8 94,7 56,-2 -1,25 59,-13 -93,-41 -36,42 -50,-46 -13,-82 -57,-40 241,-66 374,-32 162,-10 398,2l27 72c33,93 -2,81 113,122 -18,-41 -99,-51 39,-217 5,6 11,9 13,20 2,10 10,16 12,19l74 114c-72,95 -68,86 -39,138 3,-9 26,-32 31,-37 3,-2 11,-8 14,-11 65,-57 78,-13 66,-186 45,14 70,24 82,28l73 25c4,2 14,5 20,8 -43,77 -61,77 -107,156 -9,15 2,-9 -16,30l-44 109c-193,-64 -196,14 -250,48 -40,25 -21,10 -56,32 -58,38 -16,-28 -52,57 57,-32 -12,-25 177,-61 9,-2 16,-3 25,-4 40,-8 37,-3 104,-19l-127 235c-148,-71 -110,-72 -262,15l44 94 39 -106c65,21 26,20 90,0 47,55 22,62 50,123 6,-126 40,-36 124,-173 39,-64 -2,-58 70,-91 171,-78 -101,42 56,12 -75,-316 63,94 68,-393l125 59c47,21 59,20 101,38 -74,100 -8,122 -154,104 10,40 34,20 12,72 -42,99 -47,-65 -52,81 110,-80 108,-118 195,-179l140 83c-227,161 -55,48 -164,146 102,-25 58,-12 91,-108 67,22 30,6 91,30 158,63 82,96 198,148 78,-59 95,-52 161,-100 58,-41 99,-81 164,-120 66,-40 275,-170 357,-183 262,-258 782,-220 925,-249 376,-76 622,190 873,257 130,62 48,60 217,109 -42,-106 -135,-169 -75,-269l67 132c1,-1 12,-14 15,-8 33,74 31,-16 36,-17 95,-40 -44,-17 28,-9 74,177 -56,204 82,284 -1,-139 -31,-338 40,-448 86,11 28,-1 65,24l63 66 20 -202c-229,4 -329,-15 -473,-129 -97,-76 -200,-209 -196,-332 -106,-102 -57,-410 -61,-567l-232 -17 -44 -333c196,-23 272,17 302,-139 58,-302 -120,-417 526,-417l-31 224c73,0 210,8 218,9l-30 -38c-5,-6 -24,-28 -29,-35 -70,-106 -17,-125 7,-219 -116,-77 -56,-65 -201,-51 -127,13 -178,2 -294,5 -309,7 41,87 -476,91 -219,247 -90,152 -474,187 -64,61 -88,128 -176,163 -72,30 -207,37 -306,55 -53,53 -163,102 -273,115 -133,-167 -85,-193 -213,-293 2,346 -33,238 -104,252 -124,-73 -42,-203 -119,-315 -71,155 66,229 -90,296 -179,-71 41,-266 -148,-493 -5,-6 -21,-22 -27,-29l-93 -196c-83,117 -42,137 -150,200 173,132 129,79 132,188l-160 68c-261,-172 -70,-330 -84,-479 -23,-264 -186,-163 -132,-496 34,208 -16,91 -52,129 -8,-5 -34,-12 -41,-13l-335 -92c-2,0 12,-80 -71,24 0,-153 46,-159 -64,-196 55,136 3,452 -49,572 -29,31 -136,14 -214,87 -162,153 33,945 -60,1236z"/>
   <path class="fil1" d="M5766 1753c-54,333 109,232 132,496 14,149 -177,307 84,479l160 -68c-3,-109 41,-56 -132,-188 108,-63 67,-83 150,-200l93 196c6,7 22,23 27,29 189,227 -31,422 148,493 156,-67 19,-141 90,-296 77,112 -5,242 119,315 71,-14 106,94 104,-252 128,100 80,126 213,293 110,-13 220,-62 273,-115 73,-220 -81,-269 -115,-415 -47,-206 70,-49 20,-229 -50,-178 -468,-141 1083,-141 764,0 1529,-4 2293,0l20 243c2,7 5,17 9,26l264 -2 50 0c-23,-9 -72,-23 -90,-27 -31,-7 -45,-8 -75,-13 -10,-2 -18,-4 -27,-6 -9,-1 -20,-4 -28,-5 -7,-2 -19,-4 -28,-7l-27 -209c2,-74 26,-257 49,-217l175 -83c87,-35 137,-61 243,-86l19 47c54,135 -13,84 78,109 105,28 22,-58 101,34l70 -104c118,74 222,288 368,281 -3,-71 -35,-82 -76,-142 23,-10 9,-8 57,-14 1,0 59,1 82,-1 15,-141 80,-178 -120,-209l-324 -121c25,-262 52,-204 -90,-261 -69,268 105,210 -574,169 133,-51 250,-19 370,-19 -102,-110 -225,-129 -377,-203 -6,7 -11,10 -13,23 -2,13 -10,17 -12,23l-35 159c-77,-18 -45,-3 -91,-55 -28,-32 -29,-55 -45,-90 -67,-150 -28,-65 -165,-155 -168,-110 33,-63 -195,-406l-368 2c-39,56 -78,115 -111,169 -171,-20 -258,-112 -381,-153 -93,-31 -997,-34 -1116,-17 -146,21 -89,52 -194,121 -140,94 -71,-66 -177,163 -43,95 -5,27 -71,98 -102,111 -79,95 -272,114 -73,123 33,61 -111,106 -87,26 -257,25 -375,221 -63,106 67,-116 -18,36l-21 36c-2,4 -6,13 -11,18 -248,-62 -36,-72 -576,-154 -239,-36 -137,-86 -286,-432 92,-94 137,-91 161,-248 -134,37 -198,103 -273,185l25 -263c-195,66 -175,145 -172,353 -109,87 -451,250 -212,326 110,36 157,0 271,16 38,79 31,149 -17,227z"/>
   <path class="fil2" d="M10270 5247l-4 99c149,14 41,-1 83,41 102,13 398,55 490,50 143,-9 138,-141 453,-19 62,24 19,18 77,22 89,6 92,-46 228,22 59,29 -20,4 98,48 256,94 1815,-3 2165,-70 146,-28 384,-2 457,-123 -47,-90 -585,-265 -712,-323 -81,-38 -164,-94 -231,-139 -93,-61 -582,-291 -718,-320 -127,-26 -40,46 -270,53 -935,28 -294,-136 -1145,236 -154,67 -320,148 -469,224 -326,166 -17,63 -502,199z"/>
   <path class="fil3" d="M3153 4040l-104 308 490 92 135 -343 730 -20c202,331 -87,472 659,359 -8,-154 -175,-508 -226,-659 -111,-254 -443,-1082 -496,-1329l-592 -7c-65,255 -196,536 -284,800l-312 799z"/>
   <path class="fil4" d="M7227 2935c99,-18 234,-25 306,-55 88,-35 112,-102 176,-163 384,-35 255,60 474,-187 517,-4 167,-84 476,-91 116,-3 167,8 294,-5 145,-14 85,-26 201,51 -24,94 -77,113 -7,219 5,7 24,29 29,35l30 38c43,-56 12,-30 95,-48 83,235 -59,11 135,276 47,64 15,76 121,97 334,68 -89,-104 533,-130 232,-10 263,31 333,-126 47,103 -19,134 77,160 21,-568 190,-216 301,-589l-264 2c-4,-9 -7,-19 -9,-26l-20 -243c-764,-4 -1529,0 -2293,0 -1551,0 -1133,-37 -1083,141 50,180 -67,23 -20,229 34,146 188,195 115,415z"/>
   <path class="fil5" d="M9456 5397l0 108c-120,51 -228,106 -360,143 2,129 -48,162 108,211 20,-79 -15,-28 47,-69 61,-40 -3,-9 95,-30 39,67 -19,69 96,276 202,361 25,336 801,414 15,-65 30,-69 82,-115 51,-46 61,-60 150,-70 22,-83 18,-55 88,-95l-67 -14c84,-133 108,-298 75,-462 -37,-182 -235,-244 -222,-307 -42,-42 66,-27 -83,-41l4 -99c-102,5 -19,41 -54,-29 -50,-101 15,-59 15,-59 54,-48 75,-19 154,-60 84,-43 132,-189 116,-289 -15,-90 -115,-190 -222,-177 -145,18 -57,105 -312,70 -176,-24 -268,24 -413,-31 -379,-144 -400,314 -188,469 55,40 102,40 158,69 7,127 46,134 -68,187z"/>
   <path class="fil6" d="M11622 1765c200,31 135,68 120,209 -23,2 -81,1 -82,1 -48,6 -34,4 -57,14 41,60 73,71 76,142 -146,7 -250,-207 -368,-281l-70 104c-79,-92 4,-6 -101,-34 -91,-25 -24,26 -78,-109l-19 -47c-106,25 -156,51 -243,86l-175 83c-23,-40 -47,143 -49,217l27 209c9,3 21,5 28,7 8,1 19,4 28,5 9,2 17,4 27,6 30,5 44,6 75,13 18,4 67,18 90,27 671,119 654,285 788,501 328,1 247,-73 298,-72 160,58 374,92 565,53 16,-8 194,-256 226,-396 27,-118 -16,-94 86,-120 68,-113 161,-257 210,-403 -126,3 -307,23 -398,-27 -79,-1 -221,-26 -261,-91l-47 -6c-123,-8 -144,-44 -317,-114 -6,-3 -83,-34 -85,-35l-307 18c-12,28 -23,-3 13,40z"/>
   <path class="fil7" d="M15835 4986l-49 389c-6,5 -16,9 -21,12 -4,3 -15,8 -20,11l-812 284c20,-73 194,-460 257,-526 65,-243 211,-322 141,-589l-274 -1c-6,167 32,-3 50,191 15,175 40,101 50,215l0 -23c-25,-68 -46,-83 -124,-108 -74,85 -164,288 -196,383 -80,236 -273,200 -683,483 -133,92 -219,150 -328,255l82 204c511,21 1516,-206 1869,-387l62 124 82 -167 248 -822c96,-493 210,-426 -32,-645 136,20 300,110 432,94l-516 -300c-84,558 -31,382 -218,923z"/>
   <path class="fil3" d="M11189 3331c27,32 -10,8 58,59l249 127c122,47 510,-242 487,258 -231,-39 -438,-92 -670,12 -372,167 -340,733 386,682 225,-16 515,4 768,13 84,-387 44,-1027 -183,-1277 -286,-316 -902,-180 -1095,126z"/>
   <path class="fil8" d="M14611 3331c60,75 212,148 297,174 133,42 526,-204 497,268 -268,-22 -372,-113 -672,12 -373,157 -347,754 419,678 268,-27 268,24 738,14 86,-399 31,-997 -189,-1265 -259,-316 -991,-171 -1090,119z"/>
   <path class="fil9" d="M12318 1856l47 6c32,-39 99,-104 137,-136 152,75 92,102 343,34 52,-235 -174,-225 -182,-227 16,-87 11,-79 77,-143 1,1 358,165 438,-18 -2,-129 -80,-193 -148,-287l-259 -6c144,-380 -481,-286 -677,-267 -152,15 -201,58 -276,107 -173,-53 -144,-65 -316,4 -101,40 -204,106 -303,46 44,-94 -1,-1 164,-82l79 -52c-27,-116 -81,-175 -221,-189l-314 41c-6,2 -17,5 -22,7 -70,20 -123,119 -161,202 -175,29 -143,-22 -265,83 -352,302 270,255 492,249 44,-79 22,-93 122,-121 40,65 13,88 26,193l536 20c101,13 36,8 69,21l83 44c89,33 193,17 300,25 154,11 208,-2 296,-78 50,50 -18,39 176,76l90 18c-120,230 -217,8 -364,150 -43,41 -44,53 -54,118l66 32c54,20 23,0 77,22 -49,63 -32,26 -56,108z"/>
   <path class="fil3" d="M5146 3466l0 26c-2,604 79,1032 807,972 193,-16 398,19 601,2l27 -1190c8,-232 33,21 -17,-148 -2,-5 -5,-14 -9,-21l-496 -31 -7 984c-625,260 -380,-688 -476,-1010 -471,28 -424,64 -429,198 -3,70 -1,147 -1,218z"/>
   <path class="fil7" d="M4073 4918c121,94 9,32 152,76 4,-5 11,-19 13,-15l108 -127c-312,-222 -411,-505 -597,-566 -105,147 -82,300 -322,252 -192,-39 -377,-37 -509,-132 -5,-130 84,-266 120,-403 -96,0 -442,75 -421,0 -119,-63 -77,-50 -127,-189 75,-115 95,-48 144,-204 -129,22 -190,67 -240,139l51 -239c-214,74 -108,143 -204,286 -81,120 -248,58 -249,261l357 30c73,147 44,137 161,264 -58,178 -152,78 -113,322 78,49 105,68 194,82 -6,-186 -97,-124 86,-266 208,82 459,248 514,471 99,401 378,508 405,599 -2,177 -117,378 4,530 38,-46 100,-541 76,-649 61,124 158,18 117,268 -25,146 -67,286 87,369 3,-123 -11,-233 -6,-357 8,-202 23,-179 -70,-316 -144,-210 -84,-419 -78,-680 136,29 225,152 347,194z"/>
   <path class="fil10" d="M4529 4688c79,-53 35,-40 168,-47 547,-29 204,161 392,86l96 145c3,5 9,25 11,21 2,-4 8,14 12,22 -53,36 -26,26 -102,41l-18 -14c39,80 -49,130 -74,146l-97 314c-18,175 49,107 46,248 0,2 -22,203 -4,250 0,1 -77,83 95,59 151,-22 7,41 70,-58l13 -60c-8,-76 -13,-124 11,-178 119,0 159,30 227,66 114,59 84,75 85,80 2,4 4,13 6,17l99 -73c3,7 2,19 8,39 0,3 3,12 4,16l18 51c69,-33 64,-27 149,-7 25,-53 -3,-2 11,-46l35 -89c1,-3 4,-11 5,-14 44,-143 -68,63 8,-43 192,74 437,59 549,-41l-76 -141c-88,-140 -20,-121 -150,-165l33 -102c-116,-52 -40,-85 -198,-148 -61,-24 -24,-8 -91,-30 -33,96 11,83 -91,108 109,-98 -63,15 164,-146l-140 -83c-87,61 -85,99 -195,179 5,-146 10,18 52,-81 22,-52 -2,-32 -12,-72 146,18 80,-4 154,-104 -42,-18 -54,-17 -101,-38l-125 -59c-5,487 -143,77 -68,393 -157,30 115,-90 -56,-12 -72,33 -31,27 -70,91 -84,137 -118,47 -124,173 -28,-61 -3,-68 -50,-123 -64,20 -25,21 -90,0l-39 106 -44 -94c152,-87 114,-86 262,-15l127 -235c-67,16 -64,11 -104,19 -9,1 -16,2 -25,4 -189,36 -120,29 -177,61 36,-85 -6,-19 52,-57 35,-22 16,-7 56,-32 54,-34 57,-112 250,-48l44 -109c18,-39 7,-15 16,-30 46,-79 64,-79 107,-156 -6,-3 -16,-6 -20,-8l-73 -25c-12,-4 -37,-14 -82,-28 12,173 -1,129 -66,186 -3,3 -11,9 -14,11 -5,5 -28,28 -31,37 -29,-52 -33,-43 39,-138l-74 -114c-2,-3 -10,-9 -12,-19 -2,-11 -8,-14 -13,-20 -138,166 -57,176 -39,217 -115,-41 -80,-29 -113,-122l-27 -72c-236,-12 -24,-34 -398,-2 -298,26 -254,-16 -241,66 14,88 -43,5 50,46z"/>
   <path class="fil3" d="M12806 4454l508 25c61,-505 94,-1530 28,-2014l-465 -3c-9,20 -80,1849 -71,1992z"/>
   <path class="fil11" d="M12626 1953c91,50 272,30 398,27 -49,146 -142,290 -210,403 134,-27 464,-41 593,-2 63,143 65,423 67,602 2,273 49,355 72,589 76,-57 141,103 49,-304 -69,-306 -104,-364 2,-587 68,-140 -9,-163 56,-296 156,-37 335,22 451,-54 122,-78 129,-219 127,-396 -2,-299 -241,-417 -275,-743l265 -16c-43,-101 -208,-193 -349,-187 -145,180 -100,162 -41,369 175,615 -85,532 -650,489 -283,-22 -344,98 -555,106z"/>
   <path class="fil12" d="M4529 4688c-60,38 -3,11 -59,13 -2,1 -56,-7 -94,-7l28 148 -58 10 -108 127c-2,-4 -9,10 -13,15 -143,-44 -31,18 -152,-76l-10 199c9,140 49,-52 2,46 -2,3 -7,9 -9,12l-62 77c91,50 260,68 377,71 -53,137 -45,-46 -78,179 9,-3 23,-16 27,-9 5,8 41,-14 48,-16 5,-2 14,-4 19,-6l117 -62c-18,77 -25,44 -70,109l-152 -10 -73 -133c-3,-6 -8,-16 -14,-24 -61,25 -36,27 -89,-6 -22,30 -23,-9 -18,51 6,71 5,29 28,39 -30,13 -31,8 -58,24 -63,37 -37,17 -80,60l128 81c6,-7 15,-25 17,-19 13,30 27,-28 29,-30 33,-34 -6,-6 22,-21l-155 136 78 77c78,82 -4,33 69,79l230 -28c2,-5 7,-15 9,-22 22,-53 -8,-13 29,-80 0,0 49,-6 56,166 151,-20 33,-35 149,-18 141,20 -30,21 107,55 22,-41 23,-82 30,-96 37,-74 -12,-47 74,-79 50,52 35,177 41,257l223 17 23 -153 -13 60c-63,99 81,36 -70,58 -172,24 -95,-58 -95,-59 -18,-47 4,-248 4,-250 3,-141 -64,-73 -46,-248l97 -314c25,-16 113,-66 74,-146l18 14c76,-15 49,-5 102,-41 -4,-8 -10,-26 -12,-22 -2,4 -8,-16 -11,-21l-96 -145c-188,75 155,-115 -392,-86 -133,7 -89,-6 -168,47z"/>
   <path class="fil13" d="M10563 6170c-70,40 -66,12 -88,95 631,31 946,-62 1224,-37 475,43 642,187 1090,-30 -166,-79 -248,-47 -434,-183 -138,-101 -225,-204 -352,-301 -267,-205 -228,-72 -522,-150 -216,-58 -44,28 -247,-13 -99,-20 -16,-28 -122,-32 -16,-1 -122,11 -170,10l38 490c-123,79 -245,141 -417,151z"/>
   <path class="fil14" d="M16361 1171c-283,44 -235,-22 -432,152 -231,203 -231,468 -62,690 119,158 307,239 560,210 383,-43 651,-444 435,-778l-177 -168c-5,-3 -12,-8 -17,-11l-307 -95z"/>
   <path class="fil11" d="M4455 2195c2,-62 0,-111 -2,-161l-6 -88c0,-5 -2,-12 -3,-17 -17,-87 -44,-198 -27,-289 72,-36 -79,33 55,-17l94 -39 -182 9 3 235 -729 319c-152,79 -539,262 -736,289 -8,-139 -12,-282 -76,-382l-136 -3c-70,139 -164,844 -150,1007l564 11c105,-98 92,-149 251,-269l88 -80c138,-158 62,-7 129,-151 32,-69 61,-177 71,-272l144 43c60,-87 3,-53 60,-125 47,27 40,-15 43,45 0,3 -1,11 -1,14l-32 50c-3,4 -11,11 -16,17 88,-12 194,-14 249,-20 164,-18 -34,22 145,-77 6,5 15,7 18,17l90 64 28 -199c55,121 20,14 64,69z"/>
   <path class="fil15" d="M4566 1584l-94 39c-134,50 17,-19 -55,17 -17,91 10,202 27,289 1,5 3,12 3,17l6 88c2,50 4,99 2,161l187 18c91,148 89,51 81,285 -11,276 -82,786 157,1002 93,-291 -102,-1083 60,-1236 78,-73 185,-56 214,-87 52,-120 104,-436 49,-572l-147 -14c-11,-124 -13,-129 -53,-227 -73,-176 9,-21 -9,-234 -92,-72 -33,-10 -146,-53 -39,-336 59,-584 -57,-639 -66,137 -2,452 -31,639 -86,33 -66,0 -140,53 -10,149 13,91 50,188 -149,91 -53,119 -104,266z"/>
   <path class="fil3" d="M9851 3082l-13 1398 488 1 3 -854c200,-160 376,-191 677,-196 -9,-135 -35,-275 -111,-369 -293,-32 -345,74 -536,164l-48 -175 -460 31z"/>
   <path class="fil16" d="M6841 4808c21,182 203,305 257,490 162,-96 413,-170 640,-164 134,4 527,99 596,185 -40,-99 47,-149 108,-253 68,-114 67,-207 197,-250 -251,-67 -497,-333 -873,-257 -143,29 -663,-9 -925,249z"/>
   <path class="fil17" d="M14342 2700c189,-22 206,-155 364,-202 182,183 47,142 232,378l47 58c5,6 12,15 18,21 269,-40 258,-42 506,15 5,-7 10,-27 12,-23 23,51 70,-301 71,-320 182,112 92,102 379,261l140 80c6,3 16,8 24,12l150 -106c115,-109 221,-307 296,-440 55,9 152,25 234,14 144,-19 131,-39 169,-126 -524,17 -387,-57 -663,240 -68,73 -135,160 -194,214l-195 -198c-346,-314 -306,-272 -451,-213 125,-75 64,10 95,-120 -150,44 -256,127 -456,124 -151,-2 -333,-70 -385,-165l-190 99c-7,4 -27,16 -34,21l-106 89c-68,86 -56,150 -63,287z"/>
   <path class="fil3" d="M8528 4017c26,-109 -9,-171 -18,-283 120,-36 203,-2 330,19 4,196 37,106 64,131 -12,-150 -44,-313 7,-458l313 -11 1 -427 -261 11 24 -231 31 -224c-646,0 -468,115 -526,417 -30,156 -106,116 -302,139l44 333 232 17c4,157 -45,465 61,567z"/>
   <path class="fil13" d="M6785 6015c54,62 124,84 197,119 139,68 99,68 185,151 114,-21 44,-7 95,-89 457,63 650,-247 744,-253 181,44 76,79 280,111 -73,-251 49,-252 158,-407 -225,9 -332,198 -482,146 -63,-23 -179,-193 -390,-274 -162,-62 -630,-65 -711,250 -24,92 -67,173 -76,246z"/>
   <path class="fil18" d="M7262 3732c63,79 495,166 292,345 -143,127 -430,-125 -530,-155 -76,75 -178,203 -180,322 207,178 784,374 1096,104 211,-182 267,-575 -362,-754 -27,67 83,31 -107,67 -71,13 -44,-2 -107,-4 -106,-5 -144,-11 -102,75z"/>
   <path class="fil19" d="M8639 4816c-130,43 -129,136 -197,250 -61,104 -148,154 -108,253 158,25 362,112 394,264 55,-12 36,-12 57,-22 161,-80 -78,26 48,-28l3 189c13,-16 32,6 52,-139 88,26 133,39 208,65 132,-37 240,-92 360,-143l0 -108c-102,-129 -196,-121 -235,-255 -35,-124 -69,-345 -44,-462l-63 -66c-37,-25 21,-13 -65,-24 -71,110 -41,309 -40,448 -138,-80 -8,-107 -82,-284 -72,-8 67,-31 -28,9 -5,1 -3,91 -36,17 -3,-6 -14,7 -15,8l-67 -132c-60,100 33,163 75,269 -169,-49 -87,-47 -217,-109z"/>
   <path class="fil4" d="M16135 2070l548 -11c26,-54 1,-8 30,-60l57 -86c109,-144 72,-135 43,-272 -20,-96 3,15 -10,-88 -24,-175 -51,-95 -183,-190 -201,-145 -466,-133 -592,21 -210,259 -228,283 -83,562 39,74 44,124 190,124z"/>
   <path class="fil18" d="M8904 3884c-27,-25 -60,65 -64,-131 -127,-21 -210,-55 -330,-19 9,112 44,174 18,283 -4,123 99,256 196,332 144,114 244,133 473,129 405,-115 506,-367 429,-782l-348 0c-37,137 45,331 -92,379 -192,67 -225,-140 -282,-191z"/>
   <path class="fil20" d="M9204 5859l76 238c-105,-24 -188,-95 -259,-163l-139 77c-6,3 -16,7 -23,13 202,1 189,-6 320,88 83,60 177,99 191,217l-491 -45c-34,321 258,199 860,319 332,66 762,116 1108,145 -58,-117 -55,-50 -100,-119l-31 -130c-163,-10 -352,-53 -473,-49 -776,-78 -599,-53 -801,-414 -115,-207 -57,-209 -96,-276 -98,21 -34,-10 -95,30 -62,41 -27,-10 -47,69z"/>
   <path class="fil18" d="M14244 3470l-504 20c-34,99 -58,869 -29,952l341 29c84,-4 -30,7 57,-5l79 -20c67,-214 50,-715 56,-976z"/>
   <path class="fil21" d="M14778 2243c299,121 341,157 686,27 -7,-6 -19,-23 -23,-17 -4,6 -17,-12 -23,-16 -44,-25 -21,-13 -64,-33 -63,-29 -46,-6 -110,-54l16 -223c49,2 321,115 228,-181 -28,-89 -18,-38 -41,-133 -22,-92 -23,-162 -130,-206 -150,-62 -484,-65 -485,207 -2,248 279,156 181,468 -36,114 -22,57 -139,107l-96 54z"/>
   <path class="fil15" d="M6159 5211l-33 102c130,44 62,25 150,165l76 141c117,-19 290,-113 384,-158 127,-60 227,-114 362,-163 -54,-185 -236,-308 -257,-490 -82,13 -291,143 -357,183 -65,39 -106,79 -164,120 -66,48 -83,41 -161,100z"/>
   <path class="fil22" d="M15921 5736c273,-138 964,-508 1027,-767 -110,-62 -204,-54 -366,-56 -127,-1 -301,14 -413,1l-248 822z"/>
   <path class="fil3" d="M7262 3732c-42,-86 -4,-80 102,-75 63,2 36,17 107,4 190,-36 80,0 107,-67 -84,-48 -224,-100 -128,-199 139,-121 253,29 378,44 52,-74 105,-134 121,-242 -151,-174 -564,-255 -802,-103 -297,189 -145,534 115,638z"/>
   <path class="fil23" d="M15190 5156c-63,66 -237,453 -257,526l812 -284c5,-3 16,-8 20,-11 5,-3 15,-7 21,-12l49 -389c-237,11 -417,131 -645,170z"/>
   <polygon class="fil3" points="13740,3490 14244,3470 14242,3021 13747,3024 "/>
   <polygon class="fil3" points="13743,2852 14230,2852 14230,2471 13747,2468 "/>
   <path class="fil22" d="M8501 712c142,49 408,23 588,19 40,-71 115,-178 98,-209 -25,-47 -205,-82 -290,-91 -149,-16 -302,58 -378,145 -44,50 -18,-2 -30,52 -2,7 -51,-39 12,84z"/>
   <path class="fil0" d="M3854 3689l374 -11c1,-99 -132,-483 -181,-555 -58,63 -187,450 -193,566z"/>
   <path class="fil24" d="M15019 4083c0,183 175,204 379,165l29 -248c-216,-44 -280,-31 -408,83z"/>
   <path class="fil0" d="M11620 4061l-2 129c110,75 187,78 353,58 102,-359 -154,-308 -351,-187z"/>
  </g>
 </g>
</svg>
